<?xml version="1.0" encoding="UTF-8" standalone="no"?>
<svg
   xmlns:dc="http://purl.org/dc/elements/1.1/"
   xmlns:cc="http://creativecommons.org/ns#"
   xmlns:rdf="http://www.w3.org/1999/02/22-rdf-syntax-ns#"
   xmlns:svg="http://www.w3.org/2000/svg"
   xmlns="http://www.w3.org/2000/svg"
   viewBox="0 0 1466.6667 986.66669"
   height="986.66669"
   width="1466.6667"
   xml:space="preserve"
   id="svg2"
   version="1.1"><metadata
     id="metadata8"><rdf:RDF><cc:Work
         rdf:about=""><dc:format>image/svg+xml</dc:format><dc:type
           rdf:resource="http://purl.org/dc/dcmitype/StillImage" /></cc:Work></rdf:RDF></metadata><defs
     id="defs6"><clipPath
       id="clipPath18"
       clipPathUnits="userSpaceOnUse"><path
         id="path16"
         d="m 249.309,400.911 c -27.027,-3.834 -47.751,-27.516 -46.903,-55.773 v 0 c 0.86,-28.595 24.196,-52.009 52.79,-52.947 v 0 c 30.941,-1.014 56.437,23.852 56.467,54.569 v 0 c 0.004,4.577 -3.679,8.309 -8.256,8.309 v 0 h -37.982 c -4.827,0 -8.686,-4.142 -8.217,-9.066 v 0 c 0.409,-4.293 4.26,-7.446 8.572,-7.446 v 0 h 28.472 c -3.804,-17.175 -19.22,-30.037 -37.555,-29.883 v 0 c -20.717,0.174 -37.807,17.427 -37.804,38.145 v 0 c 0.002,21.021 17.104,38.122 38.126,38.124 v 0 c 4.566,0 8.241,3.85 8.259,8.415 v 0 c 0.086,20.952 17.157,37.97 38.129,37.97 v 0 c 21.047,0 38.167,-17.132 38.141,-38.179 v 0 c -0.006,-4.567 3.694,-8.206 8.26,-8.206 v 0 c 21.596,-0.003 39.054,-18.052 38.087,-39.857 v 0 c -0.891,-20.056 -18.962,-36.414 -39.037,-36.414 v 0 h -22.785 c -4.827,0 -8.686,-4.142 -8.216,-9.066 v 0 c 0.408,-4.292 4.258,-7.444 8.57,-7.444 v 0 h 22.21 c 29.612,0 54.721,23.078 55.772,52.673 v 0 c 1.008,28.39 -19.769,52.229 -46.892,56.076 v 0 c -3.759,26.492 -26.591,46.928 -54.11,46.928 v 0 c -27.513,0 -50.34,-20.436 -54.098,-46.928" /></clipPath><linearGradient
       id="linearGradient28"
       spreadMethod="pad"
       gradientTransform="matrix(0,-160.66106,-160.66106,0,303.41278,449.50043)"
       gradientUnits="userSpaceOnUse"
       y2="0"
       x2="1"
       y1="0"
       x1="0"><stop
         id="stop24"
         offset="0"
         style="stop-opacity:1;stop-color:#00d1ff" /><stop
         id="stop26"
         offset="1"
         style="stop-opacity:1;stop-color:#1540f5" /></linearGradient><clipPath
       id="clipPath38"
       clipPathUnits="userSpaceOnUse"><path
         id="path36"
         d="M 0,740 H 1100 V 0 H 0 Z" /></clipPath></defs><g
     transform="matrix(1.3333333,0,0,-1.3333333,0,986.66667)"
     id="g10"><g
       id="g12"><g
         clip-path="url(#clipPath18)"
         id="g14"><g
           id="g20"><g
             id="g22"><path
               id="path30"
               style="fill:url(#linearGradient28);stroke:none"
               d="m 249.309,400.911 c -27.027,-3.834 -47.751,-27.516 -46.903,-55.773 v 0 c 0.86,-28.595 24.196,-52.009 52.79,-52.947 v 0 c 30.941,-1.014 56.437,23.852 56.467,54.569 v 0 c 0.004,4.577 -3.679,8.309 -8.256,8.309 v 0 h -37.982 c -4.827,0 -8.686,-4.142 -8.217,-9.066 v 0 c 0.409,-4.293 4.26,-7.446 8.572,-7.446 v 0 h 28.472 c -3.804,-17.175 -19.22,-30.037 -37.555,-29.883 v 0 c -20.717,0.174 -37.807,17.427 -37.804,38.145 v 0 c 0.002,21.021 17.104,38.122 38.126,38.124 v 0 c 4.566,0 8.241,3.85 8.259,8.415 v 0 c 0.086,20.952 17.157,37.97 38.129,37.97 v 0 c 21.047,0 38.167,-17.132 38.141,-38.179 v 0 c -0.006,-4.567 3.694,-8.206 8.26,-8.206 v 0 c 21.596,-0.003 39.054,-18.052 38.087,-39.857 v 0 c -0.891,-20.056 -18.962,-36.414 -39.037,-36.414 v 0 h -22.785 c -4.827,0 -8.686,-4.142 -8.216,-9.066 v 0 c 0.408,-4.292 4.258,-7.444 8.57,-7.444 v 0 h 22.21 c 29.612,0 54.721,23.078 55.772,52.673 v 0 c 1.008,28.39 -19.769,52.229 -46.892,56.076 v 0 c -3.759,26.492 -26.591,46.928 -54.11,46.928 v 0 c -27.513,0 -50.34,-20.436 -54.098,-46.928" /></g></g></g></g><g
       id="g32"><g
         clip-path="url(#clipPath38)"
         id="g34"><g
           transform="translate(501.3227,338.9217)"
           id="g40"><path
             id="path42"
             style="fill:#0f1a57;fill-opacity:1;fill-rule:nonzero;stroke:none"
             d="m 0,0 c 1.774,0 3.212,-0.479 4.314,-1.438 1.1,-0.958 1.651,-2.468 1.651,-4.526 0,-5.753 -1.065,-11.096 -3.195,-16.031 -2.131,-4.937 -5.043,-9.25 -8.735,-12.943 -3.693,-3.692 -8.007,-6.587 -12.941,-8.68 -4.937,-2.096 -10.21,-3.142 -15.819,-3.142 -5.61,0 -10.882,0.958 -15.817,2.875 -4.936,1.919 -9.232,4.581 -12.888,7.989 -3.658,3.409 -6.552,7.492 -8.681,12.25 -2.131,4.757 -3.196,9.976 -3.196,15.657 0,5.609 1.081,10.882 3.248,15.818 2.166,4.934 5.095,9.249 8.788,12.941 3.691,3.693 8.023,6.606 12.995,8.736 4.969,2.131 10.226,3.195 15.765,3.195 5.68,0 11.131,-1.064 16.35,-3.195 5.219,-2.13 9.64,-5.149 13.261,-9.055 0.64,-0.711 1.119,-1.384 1.439,-2.023 0.319,-0.639 0.479,-1.421 0.479,-2.344 0,-1.847 -0.533,-3.321 -1.599,-4.421 -1.064,-1.1 -2.52,-1.649 -4.367,-1.649 -0.851,0 -1.722,0.211 -2.609,0.639 -0.889,0.425 -1.722,1.064 -2.503,1.917 -2.273,2.412 -5.203,4.331 -8.788,5.75 -3.586,1.42 -7.474,2.131 -11.663,2.131 -3.907,0 -7.6,-0.745 -11.078,-2.236 -3.481,-1.492 -6.516,-3.533 -9.108,-6.125 -2.592,-2.593 -4.633,-5.61 -6.124,-9.053 -1.491,-3.446 -2.237,-7.12 -2.237,-11.026 0,-3.906 0.728,-7.474 2.183,-10.705 1.455,-3.231 3.463,-6.018 6.019,-8.36 2.557,-2.344 5.556,-4.173 9,-5.487 3.444,-1.314 7.154,-1.969 11.131,-1.969 3.55,0 6.906,0.567 10.067,1.703 3.158,1.136 5.981,2.734 8.467,4.794 2.485,2.059 4.581,4.489 6.285,7.296 1.704,2.804 2.84,5.875 3.409,9.214 h -28.014 c -1.704,0 -3.142,0.479 -4.314,1.437 -1.172,0.959 -1.757,2.396 -1.757,4.315 0,1.774 0.585,3.177 1.757,4.207 1.172,1.029 2.61,1.544 4.314,1.544 z" /></g><g
           transform="translate(523.2393,349.5889)"
           id="g44"><path
             id="path46"
             style="fill:#0f1a57;fill-opacity:1;fill-rule:nonzero;stroke:none"
             d="m 0,0 c 1.66,0 2.89,-0.516 3.689,-1.546 0.797,-1.03 1.26,-2.442 1.395,-4.237 1.929,2.127 4.022,3.656 6.28,4.587 2.261,0.931 4.885,1.396 7.879,1.396 1.66,0 3.041,-0.449 4.137,-1.346 1.095,-0.897 1.646,-2.343 1.646,-4.338 0,-1.594 -0.4,-2.874 -1.2,-3.837 -0.796,-0.964 -2.059,-1.514 -3.786,-1.646 -2.86,-0.199 -5.219,-0.632 -7.08,-1.296 -1.862,-0.665 -3.323,-1.579 -4.385,-2.742 -1.065,-1.164 -1.794,-2.56 -2.194,-4.188 -0.4,-1.63 -0.598,-3.439 -0.598,-5.433 v -26.221 c 0,-1.463 -0.518,-2.71 -1.546,-3.74 -1.031,-1.031 -2.409,-1.545 -4.136,-1.545 -1.731,0 -3.127,0.514 -4.189,1.545 -1.065,1.03 -1.596,2.309 -1.596,3.839 V -6.28 c 0,1.727 0.415,3.206 1.247,4.435 C -3.607,-0.615 -2.129,0 0,0" /></g><g
           transform="translate(598.4131,293.4567)"
           id="g48"><path
             id="path50"
             style="fill:#0f1a57;fill-opacity:1;fill-rule:nonzero;stroke:none"
             d="M 0,0 C -3.258,0 -5.185,1.662 -5.783,4.986 -7.113,3.058 -8.908,1.529 -11.167,0.4 c -2.26,-1.131 -4.951,-1.695 -8.076,-1.695 -3.589,0 -6.813,0.598 -9.671,1.794 -2.857,1.196 -5.283,2.858 -7.278,4.985 -1.994,2.127 -3.524,4.685 -4.586,7.678 -1.064,2.99 -1.595,6.28 -1.595,9.87 V 50.45 c 0,1.795 0.515,3.191 1.544,4.187 1.03,0.996 2.41,1.495 4.138,1.495 1.662,0 3.024,-0.499 4.088,-1.495 1.063,-0.996 1.596,-2.392 1.596,-4.187 V 23.032 c 0,-3.923 1.047,-7.063 3.14,-9.422 2.093,-2.36 5.168,-3.54 9.223,-3.54 4.053,0 7.079,1.163 9.073,3.49 1.994,2.327 2.99,5.483 2.99,9.472 V 50.45 c 0,1.795 0.514,3.191 1.546,4.187 1.03,0.996 2.443,1.495 4.237,1.495 1.596,0 2.942,-0.499 4.039,-1.495 1.095,-0.996 1.645,-2.392 1.645,-4.187 V 4.986 C 4.886,3.456 4.402,2.245 3.439,1.346 2.475,0.449 1.329,0 0,0" /></g><g
           transform="translate(651.5532,368.3333)"
           id="g52"><path
             id="path54"
             style="fill:#0f1a57;fill-opacity:1;fill-rule:nonzero;stroke:none"
             d="m 0,0 c 5.584,0 10.818,-1.146 15.703,-3.439 4.886,-2.293 9.056,-5.37 12.513,-9.224 0.399,-0.532 0.763,-1.063 1.097,-1.594 0.331,-0.532 0.498,-1.263 0.498,-2.194 0,-1.794 -0.533,-3.207 -1.595,-4.237 -1.065,-1.032 -2.459,-1.546 -4.188,-1.546 -1.263,0 -2.192,0.215 -2.791,0.649 -0.598,0.431 -1.065,0.846 -1.396,1.246 -2.526,2.791 -5.468,4.968 -8.823,6.531 -3.357,1.56 -7.03,2.342 -11.018,2.342 -3.723,0 -7.196,-0.698 -10.418,-2.094 -3.226,-1.396 -6.033,-3.306 -8.425,-5.732 -2.393,-2.428 -4.271,-5.252 -5.634,-8.474 -1.362,-3.226 -2.043,-6.665 -2.043,-10.321 0,-3.656 0.681,-7.078 2.043,-10.268 1.363,-3.191 3.241,-5.983 5.634,-8.375 2.392,-2.393 5.199,-4.288 8.425,-5.684 3.222,-1.394 6.695,-2.093 10.418,-2.093 3.988,0 7.627,0.714 10.917,2.144 3.291,1.428 6.198,3.539 8.724,6.33 0.531,0.664 1.148,1.213 1.845,1.646 0.697,0.43 1.511,0.647 2.443,0.647 1.727,0 3.14,-0.497 4.237,-1.495 1.097,-0.996 1.645,-2.293 1.645,-3.888 0,-1.794 -0.598,-3.358 -1.795,-4.685 -3.523,-3.791 -7.661,-6.766 -12.412,-8.925 -4.753,-2.159 -9.956,-3.241 -15.604,-3.241 -5.252,0 -10.186,0.983 -14.805,2.942 -4.621,1.961 -8.642,4.652 -12.064,8.076 -3.424,3.422 -6.132,7.428 -8.126,12.014 -1.995,4.587 -2.991,9.538 -2.991,14.855 0,5.25 0.996,10.186 2.991,14.807 1.994,4.618 4.702,8.657 8.126,12.113 3.422,3.456 7.443,6.182 12.064,8.176 C -10.186,-0.996 -5.252,0 0,0" /></g><g
           transform="translate(703.1005,299.2395)"
           id="g56"><path
             id="path58"
             style="fill:#0f1a57;fill-opacity:1;fill-rule:nonzero;stroke:none"
             d="m 0,0 c 0,-1.794 -0.516,-3.207 -1.546,-4.237 -1.031,-1.032 -2.442,-1.546 -4.237,-1.546 -1.594,0 -2.94,0.514 -4.037,1.546 -1.097,1.03 -1.645,2.443 -1.645,4.237 v 66.701 c 0,1.727 0.548,3.107 1.645,4.138 1.097,1.029 2.443,1.544 4.037,1.544 1.795,0 3.206,-0.515 4.237,-1.544 C -0.516,69.808 0,68.428 0,66.701 Z" /></g><g
           transform="translate(742.7799,339.4196)"
           id="g60"><path
             id="path62"
             style="fill:#0f1a57;fill-opacity:1;fill-rule:nonzero;stroke:none"
             d="m 0,0 c -2.527,0 -4.869,-0.465 -7.029,-1.396 -2.161,-0.931 -4.038,-2.211 -5.632,-3.839 -1.596,-1.628 -2.859,-3.538 -3.79,-5.732 -0.931,-2.193 -1.395,-4.521 -1.395,-6.979 0,-2.46 0.464,-4.77 1.395,-6.929 0.931,-2.16 2.194,-4.039 3.79,-5.633 1.594,-1.596 3.471,-2.859 5.632,-3.789 2.16,-0.932 4.502,-1.396 7.029,-1.396 2.458,0 4.77,0.464 6.93,1.396 2.159,0.93 4.052,2.193 5.682,3.789 1.628,1.594 2.908,3.473 3.839,5.633 0.931,2.159 1.396,4.469 1.396,6.929 0,2.458 -0.465,4.786 -1.396,6.979 -0.931,2.194 -2.211,4.104 -3.839,5.732 -1.63,1.628 -3.523,2.908 -5.682,3.839 C 4.77,-0.465 2.458,0 0,0 m 0,11.466 c 4.054,0 7.859,-0.783 11.416,-2.343 3.555,-1.563 6.663,-3.673 9.323,-6.331 2.657,-2.659 4.751,-5.767 6.281,-9.322 1.527,-3.557 2.294,-7.362 2.294,-11.416 0,-4.056 -0.767,-7.861 -2.294,-11.416 -1.53,-3.557 -3.624,-6.647 -6.281,-9.272 -2.66,-2.626 -5.768,-4.703 -9.323,-6.232 C 7.859,-46.395 4.054,-47.159 0,-47.159 c -4.054,0 -7.861,0.764 -11.416,2.293 -3.557,1.529 -6.663,3.606 -9.321,6.232 -2.659,2.625 -4.753,5.715 -6.282,9.272 -1.53,3.555 -2.293,7.36 -2.293,11.416 0,4.054 0.763,7.859 2.293,11.416 1.529,3.555 3.623,6.663 6.282,9.322 2.658,2.658 5.764,4.768 9.321,6.331 3.555,1.56 7.362,2.343 11.416,2.343" /></g><g
           transform="translate(824.6353,293.4567)"
           id="g64"><path
             id="path66"
             style="fill:#0f1a57;fill-opacity:1;fill-rule:nonzero;stroke:none"
             d="M 0,0 C -3.258,0 -5.185,1.662 -5.783,4.986 -7.113,3.058 -8.908,1.529 -11.167,0.4 c -2.26,-1.131 -4.951,-1.695 -8.076,-1.695 -3.589,0 -6.813,0.598 -9.671,1.794 -2.857,1.196 -5.283,2.858 -7.278,4.985 -1.994,2.127 -3.524,4.685 -4.586,7.678 -1.064,2.99 -1.595,6.28 -1.595,9.87 V 50.45 c 0,1.795 0.515,3.191 1.544,4.187 1.03,0.996 2.41,1.495 4.138,1.495 1.662,0 3.024,-0.499 4.088,-1.495 1.063,-0.996 1.596,-2.392 1.596,-4.187 V 23.032 c 0,-3.923 1.047,-7.063 3.14,-9.422 2.093,-2.36 5.168,-3.54 9.224,-3.54 4.052,0 7.078,1.163 9.072,3.49 1.994,2.327 2.99,5.483 2.99,9.472 V 50.45 c 0,1.795 0.514,3.191 1.546,4.187 1.03,0.996 2.443,1.495 4.237,1.495 1.596,0 2.942,-0.499 4.039,-1.495 1.095,-0.996 1.645,-2.392 1.645,-4.187 V 4.986 C 4.886,3.456 4.402,2.245 3.439,1.346 2.475,0.449 1.329,0 0,0" /></g><g
           transform="translate(869.1029,339.4196)"
           id="g68"><path
             id="path70"
             style="fill:#0f1a57;fill-opacity:1;fill-rule:nonzero;stroke:none"
             d="m 0,0 c -2.527,0 -4.869,-0.465 -7.029,-1.396 -2.161,-0.931 -4.037,-2.211 -5.632,-3.839 -1.596,-1.628 -2.859,-3.538 -3.79,-5.732 -0.931,-2.193 -1.394,-4.521 -1.394,-6.979 0,-2.46 0.463,-4.77 1.394,-6.929 0.931,-2.16 2.194,-4.039 3.79,-5.633 1.595,-1.596 3.471,-2.859 5.632,-3.789 2.16,-0.932 4.502,-1.396 7.029,-1.396 2.394,0 4.637,0.464 6.73,1.396 2.094,0.93 3.888,2.193 5.385,3.789 1.495,1.594 2.674,3.473 3.538,5.633 0.864,2.159 1.297,4.469 1.297,6.929 0,2.458 -0.433,4.786 -1.297,6.979 -0.864,2.194 -2.043,4.104 -3.538,5.732 C 10.618,-3.607 8.824,-2.327 6.73,-1.396 4.637,-0.465 2.394,0 0,0 m 16.95,26.521 c 0,1.727 0.514,3.107 1.546,4.138 1.03,1.028 2.442,1.544 4.237,1.544 1.727,0 3.123,-0.516 4.186,-1.544 1.064,-1.031 1.597,-2.411 1.597,-4.138 v -67.398 c 0,-1.531 -0.449,-2.759 -1.346,-3.69 -0.897,-0.929 -2.045,-1.396 -3.441,-1.396 -1.661,0 -3.074,0.499 -4.237,1.495 -1.164,0.998 -1.878,2.658 -2.144,4.987 -0.863,-0.998 -1.929,-1.962 -3.19,-2.892 -1.264,-0.932 -2.66,-1.745 -4.187,-2.442 -1.53,-0.699 -3.142,-1.262 -4.835,-1.696 -1.695,-0.431 -3.407,-0.648 -5.136,-0.648 -3.789,0 -7.461,0.764 -11.016,2.293 -3.557,1.529 -6.68,3.606 -9.373,6.232 -2.692,2.625 -4.852,5.715 -6.48,9.272 -1.63,3.555 -2.443,7.36 -2.443,11.416 0,4.054 0.813,7.859 2.443,11.416 1.628,3.555 3.788,6.663 6.48,9.322 2.693,2.658 5.816,4.768 9.373,6.331 3.555,1.56 7.227,2.343 11.016,2.343 3.789,0 7.112,-0.648 9.971,-1.945 2.856,-1.295 5.185,-3.041 6.979,-5.233 z" /></g></g></g></g></svg>